<?xml version="1.0" encoding="UTF-8" standalone="no"?>
<!-- Created with Inkscape (http://www.inkscape.org/) -->

<svg
   version="1.1"
   id="svg1"
   width="2031.7231"
   height="2599.9631"
   viewBox="0 0 2031.7231 2599.9631"
   xmlns="http://www.w3.org/2000/svg"
   xmlns:svg="http://www.w3.org/2000/svg">
  <defs
     id="defs1" />
  <g
     id="g1"
     transform="translate(-0.13842276,-0.01845042)">
    <path
       id="path1"
       style="display:inline;fill:#000000"
       d="M 1022.1934,0.20507812 C 38.927065,-0.17168999 118.74682,-0.87601302 92.787109,8.4023438 67.121064,17.575743 45.650557,33.325134 29.121094,55.103516 14.39148,74.510507 5.9874081,94.086952 2.0371094,118.19531 0.0915713,130.06878 -0.06245376,234.38325 0.28515625,1305.8789 l 0.38085937,1174.666 3.52343748,12.7344 c 7.4007019,26.7547 19.3095159,47.7261 37.0624999,65.2656 20.691613,20.4429 46.801814,34.1162 74.970707,39.2598 13.65255,2.4926 1780.38174,3.2541 1798.40624,0.082 55.6448,-9.7926 97.7161,-48.6443 113.1543,-104.4961 l 3.5508,-12.8457 0.3808,-1174.666 c 0.3476,-1071.49565 0.1937,-1175.81012 -1.7519,-1187.68359 -5.0391,-30.753397 -18.2147,-56.155551 -40.6211,-78.316404 -17.7769,-17.582091 -37.026,-28.37765 -63.7832,-35.7714841 L 1912.666,0.54492188 Z M 402.47461,9.2539062 C 376.0211,10.445865 117.68564,9.0154427 110.52148,11.828125 c 2.56344,-0.601143 5.00139,-1.47998 7.625,-1.9375 3.23248,-0.5636962 243.735,-0.3417356 284.32813,-0.6367188 z M 1016,11.441406 c 782.018,0 885.1994,0.230722 895.3789,2.00586 55.623,9.699991 98.0997,52.297802 107.8906,108.197264 1.7061,9.74015 1.9512,158.1575 1.9512,1178.23437 0,1269.41 0.5487,1176.333 -7.082,1198.6856 -6.8104,19.955 -15.1141,33.4955 -30.0586,49.0078 -20.5796,21.3661 -43.5849,33.5364 -73.2598,38.7578 -17.9322,3.1563 -1777.12717,2.4133 -1790.79686,-0.084 -55.6072,-10.1532 -97.568912,-52.3215 -107.238284,-107.7715 -1.778426,-10.1979 -2.005859,-144.0854 -2.005859,-1178.5957 0,-1034.50953 0.227433,-1168.39726 2.005859,-1178.5957 C 22.483723,65.667483 65.005371,23.145833 120.62109,13.447266 130.80062,11.672128 233.98168,11.441406 1016,11.441406 Z" />
  </g>
</svg>
